<svg version="1.1" id="Layer_1" xmlns="http://www.w3.org/2000/svg" xmlns:xlink="http://www.w3.org/1999/xlink" x="0px" y="0px"   width="28px" height="28" viewBox="0 0 50 44.155" enable-background="new 0 0 50 44.155" xml:space="preserve"><path fill="#FFFFFF" d="M32.559,21.326c0.125-0.141,0.178-0.327,0.146-0.51l-3.18-19.192c-0.043-0.264-0.252-0.472-0.516-0.513  c-1.336-0.216-2.691-0.327-4.033-0.327c-1.204,0-2.411,0.086-3.595,0.26c-0.261,0.043-0.471,0.244-0.52,0.503l-3.564,19.173  c-0.051,0.281,0.096,0.564,0.359,0.681c0.148,0.067,3.706,1.62,8.027,1.62c2.452,0,4.659-0.506,6.563-1.505  C32.367,21.486,32.477,21.417,32.559,21.326"/><path fill="#FFFFFF" d="M49.514,36.188l-14.82-12.67c-0.115-0.1-0.258-0.149-0.4-0.149c-0.131,0-0.26,0.035-0.367,0.121  c-0.291,0.21-7.102,5.255-7.396,12.578c-0.031,0.117-0.029,0.242,0.008,0.359c0.061,0.178,0.195,0.32,0.373,0.385l18.211,6.842  c0.068,0.027,0.146,0.039,0.221,0.039c0.18,0,0.357-0.082,0.475-0.229c1.637-2.002,2.941-4.213,3.871-6.574  C49.789,36.643,49.715,36.361,49.514,36.188"/><path fill="#FFFFFF" d="M16.075,23.489c-0.108-0.082-0.235-0.123-0.365-0.123c-0.144,0-0.288,0.05-0.404,0.149L0.485,36.188  c-0.201,0.174-0.272,0.455-0.173,0.701c0.933,2.361,2.235,4.572,3.87,6.574c0.12,0.146,0.299,0.229,0.481,0.229  c0.073,0,0.146-0.008,0.219-0.039l18.21-6.842c0.177-0.064,0.313-0.207,0.372-0.385c0.04-0.117,0.042-0.242,0.009-0.359  C23.176,28.744,16.368,23.697,16.075,23.489"/></svg>
